<svg width="33" height="34" viewBox="0 0 33 34" fill="none" xmlns="http://www.w3.org/2000/svg">
<path d="M16.5 0.5C12.0223 0.5 11.4593 0.520625 9.69994 0.599C7.94063 0.6815 6.74231 0.957875 5.6925 1.36625C4.5908 1.77942 3.59317 2.42926 2.76994 3.26994C1.92926 4.09317 1.27942 5.0908 0.86625 6.1925C0.457875 7.24025 0.179438 8.44062 0.099 10.1937C0.020625 11.9572 0 12.5182 0 17.0021C0 21.4818 0.020625 22.0428 0.099 23.8021C0.1815 25.5594 0.457875 26.7577 0.86625 27.8075C1.28906 28.8924 1.85213 29.8122 2.76994 30.7301C3.68569 31.6479 4.60556 32.213 5.69044 32.6338C6.74231 33.0421 7.93856 33.3206 9.69581 33.401C11.4572 33.4794 12.0182 33.5 16.5 33.5C20.9818 33.5 21.5408 33.4794 23.3021 33.401C25.0573 33.3185 26.2598 33.0421 27.3096 32.6338C28.4105 32.2203 29.4074 31.5705 30.2301 30.7301C31.1479 29.8122 31.7109 28.8924 32.1338 27.8075C32.5401 26.7577 32.8185 25.5594 32.901 23.8021C32.9794 22.0428 33 21.4818 33 17C33 12.5182 32.9794 11.9572 32.901 10.1958C32.8185 8.44063 32.5401 7.24025 32.1338 6.1925C31.7206 5.0908 31.0707 4.09317 30.2301 3.26994C29.4068 2.42926 28.4092 1.77942 27.3075 1.36625C26.2556 0.957875 25.0553 0.679438 23.3001 0.599C21.5387 0.520625 20.9797 0.5 16.4959 0.5H16.5ZM15.0212 3.47413H16.5021C20.9076 3.47413 21.4294 3.48856 23.1681 3.569C24.7768 3.64119 25.6513 3.91138 26.2329 4.13619C27.0022 4.43525 27.5529 4.79413 28.1304 5.37162C28.7079 5.94912 29.0648 6.49775 29.3638 7.26912C29.5907 7.84869 29.8588 8.72319 29.931 10.3319C30.0114 12.0706 30.0279 12.5924 30.0279 16.9959C30.0279 21.3993 30.0114 21.9232 29.931 23.6619C29.8588 25.2706 29.5886 26.1431 29.3638 26.7247C29.0974 27.4402 28.6754 28.0876 28.1284 28.6201C27.5509 29.1976 27.0023 29.5544 26.2309 29.8535C25.6534 30.0804 24.7789 30.3485 23.1681 30.4228C21.4294 30.5011 20.9076 30.5197 16.5021 30.5197C12.0966 30.5197 11.5727 30.5011 9.834 30.4228C8.22525 30.3485 7.35281 30.0804 6.77119 29.8535C6.05516 29.588 5.40705 29.1667 4.87369 28.6201C4.32563 28.0872 3.90293 27.439 3.63619 26.7226C3.41138 26.1431 3.14119 25.2686 3.069 23.6598C2.99063 21.9211 2.97413 21.3993 2.97413 16.9917C2.97413 12.5842 2.99063 12.0665 3.069 10.3278C3.14325 8.71906 3.41138 7.84456 3.63825 7.26294C3.93731 6.49363 4.29619 5.94294 4.87369 5.36544C5.45119 4.78794 5.99981 4.43113 6.77119 4.13206C7.35281 3.90519 8.22525 3.63706 9.834 3.56281C11.3561 3.49269 11.946 3.47206 15.0212 3.47V3.47413ZM25.3089 6.21312C25.0489 6.21312 24.7914 6.26434 24.5512 6.36384C24.311 6.46335 24.0927 6.60919 23.9089 6.79305C23.725 6.97691 23.5792 7.19519 23.4797 7.43541C23.3801 7.67564 23.3289 7.93311 23.3289 8.19313C23.3289 8.45314 23.3801 8.71061 23.4797 8.95084C23.5792 9.19106 23.725 9.40934 23.9089 9.5932C24.0927 9.77706 24.311 9.9229 24.5512 10.0224C24.7914 10.1219 25.0489 10.1731 25.3089 10.1731C25.8341 10.1731 26.3377 9.96452 26.709 9.5932C27.0803 9.22187 27.2889 8.71825 27.2889 8.19313C27.2889 7.668 27.0803 7.16438 26.709 6.79305C26.3377 6.42173 25.8341 6.21312 25.3089 6.21312ZM16.5021 8.52725C15.3781 8.50972 14.262 8.71594 13.2185 9.13392C12.1751 9.55189 11.2252 10.1733 10.4242 10.9619C9.62318 11.7505 8.98706 12.6905 8.55286 13.7273C8.11866 14.7642 7.89504 15.877 7.89504 17.001C7.89504 18.1251 8.11866 19.2379 8.55286 20.2747C8.98706 21.3115 9.62318 22.2516 10.4242 23.0402C11.2252 23.8288 12.1751 24.4502 13.2185 24.8681C14.262 25.2861 15.3781 25.4923 16.5021 25.4748C18.7266 25.4401 20.8482 24.5321 22.409 22.9467C23.9698 21.3613 24.8447 19.2258 24.8447 17.001C24.8447 14.7763 23.9698 12.6407 22.409 11.0554C20.8482 9.46999 18.7266 8.56196 16.5021 8.52725ZM16.5021 11.4993C17.2244 11.4993 17.9397 11.6416 18.6071 11.918C19.2745 12.1945 19.8808 12.5996 20.3916 13.1104C20.9024 13.6212 21.3076 14.2276 21.584 14.895C21.8605 15.5624 22.0028 16.2776 22.0028 17C22.0028 17.7224 21.8605 18.4376 21.584 19.105C21.3076 19.7724 20.9024 20.3788 20.3916 20.8896C19.8808 21.4004 19.2745 21.8055 18.6071 22.082C17.9397 22.3584 17.2244 22.5007 16.5021 22.5007C15.0432 22.5007 13.6441 21.9212 12.6125 20.8896C11.5809 19.858 11.0014 18.4589 11.0014 17C11.0014 15.5411 11.5809 14.142 12.6125 13.1104C13.6441 12.0788 15.0432 11.4993 16.5021 11.4993Z" fill="#F4C566"/>
</svg>
