<svg width="24" height="24" viewBox="0 0 24 24" fill="none" xmlns="http://www.w3.org/2000/svg">
<path fill-rule="evenodd" clip-rule="evenodd" d="M3.96554 1.42188H7.71654C7.86909 1.42188 8.01802 1.4684 8.14345 1.55523C8.26888 1.64207 8.36484 1.76509 8.41854 1.90787L9.87454 5.77787C9.92253 5.90586 9.93463 6.04452 9.90954 6.17887L9.17954 10.0909C10.0765 12.1989 11.5575 13.6159 14.0125 14.8869L17.8775 14.1369C18.0149 14.1104 18.1569 14.1229 18.2875 14.1729L22.1695 15.6529C22.3115 15.7069 22.4336 15.8028 22.5199 15.9278C22.6061 16.0528 22.6524 16.201 22.6525 16.3529V19.9369C22.6525 21.5629 21.2205 22.8819 19.5445 22.5169C16.4915 21.8529 10.8345 20.1639 6.87254 16.2019C3.07654 12.4069 1.80454 7.16488 1.37754 4.33187C1.13254 2.71387 2.42954 1.42188 3.96554 1.42188Z" fill="#F4C566"/>
</svg>
