<svg width="27" height="26" viewBox="0 0 24 24" fill="none" xmlns="http://www.w3.org/2000/svg">
<path d="M13.5 0.000178515C12.1171 -0.0646838 10.7358 0.159924 9.44466 0.659625C8.1535 1.15933 6.98091 1.92311 6.00193 2.90208C5.02296 3.88105 4.25918 5.05365 3.75948 6.3448C3.25978 7.63596 3.03517 9.01722 3.10003 10.4002C3.10003 13.6762 5.70003 16.9002 7.00003 18.2002C8.30003 19.5002 13.5 26.0002 13.5 26.0002C13.5 26.0002 18.7 19.5002 20 18.2002C21.3 16.9002 23.9 13.6762 23.9 10.4002C23.9649 9.01722 23.7403 7.63596 23.2406 6.3448C22.7409 5.05365 21.9771 3.88105 20.9981 2.90208C20.0192 1.92311 18.8466 1.15933 17.5554 0.659625C16.2643 0.159924 14.883 -0.0646838 13.5 0.000178515ZM13.5 14.6252C12.6644 14.6252 11.8475 14.3774 11.1527 13.9131C10.458 13.4489 9.91642 12.789 9.59664 12.017C9.27686 11.245 9.19319 10.3955 9.35621 9.57592C9.51924 8.75635 9.92163 8.00353 10.5125 7.41265C11.1034 6.82177 11.8562 6.41938 12.6758 6.25636C13.4953 6.09334 14.3449 6.17701 15.1169 6.49679C15.8889 6.81657 16.5487 7.3581 17.013 8.05289C17.4772 8.74769 17.725 9.56455 17.725 10.4002C17.725 10.955 17.6157 11.5044 17.4034 12.017C17.1911 12.5296 16.8799 12.9954 16.4876 13.3877C16.0952 13.78 15.6295 14.0912 15.1169 14.3036C14.6043 14.5159 14.0549 14.6252 13.5 14.6252Z" fill="#F4C566"/>
</svg>
