<svg width="34" height="24" viewBox="0 0 34 34" fill="none" xmlns="http://www.w3.org/2000/svg">
<path fill-rule="evenodd" clip-rule="evenodd" d="M12.1924 19.2678L17.0034 22.5573L21.641 19.3579L32.0365 29.614C31.7622 29.7035 31.4721 29.7489 31.1661 29.75H2.8339C2.4599 29.75 2.1029 29.6769 1.7748 29.546L12.1924 19.2678ZM34 10.8392V26.9161C34 27.336 33.9082 27.7338 33.745 28.0925L23.5552 18.0387L34 10.8392ZM0 10.9293L10.2714 17.9537L0.1802 27.9123C0.0619867 27.5934 0.000984286 27.2562 0 26.9161L0 10.9293ZM31.1661 4.25C32.7301 4.25 34 5.5182 34 7.0839V8.0801L16.9966 19.8016L0 8.177V7.0839C0 5.5199 1.2682 4.25 2.8339 4.25H31.1661Z" fill="#F4C566"/>
</svg>
