<svg width="38" height="38" viewBox="0 0 38 38" fill="none" xmlns="http://www.w3.org/2000/svg">
<path d="M33.0918 3.16699H4.90841C4.4465 3.16699 4.0035 3.35049 3.67687 3.67711C3.35024 4.00374 3.16675 4.44674 3.16675 4.90866V33.092C3.16675 33.5539 3.35024 33.9969 3.67687 34.3235C4.0035 34.6502 4.4465 34.8337 4.90841 34.8337H20.0767V22.5628H15.9601V17.8128H20.0767V14.2503C19.9915 13.4139 20.0902 12.569 20.366 11.7748C20.6419 10.9807 21.0881 10.2564 21.6735 9.65298C22.2588 9.04951 22.9691 8.58142 23.7546 8.28154C24.54 7.98165 25.3815 7.85722 26.2201 7.91699C27.4525 7.90848 28.6843 7.97193 29.9093 8.10699V12.382H27.3917C25.3967 12.382 25.0168 13.332 25.0168 14.7095V17.7653H29.7668L29.1493 22.5153H25.0168V34.8337H33.0918C33.3205 34.8337 33.5469 34.7886 33.7583 34.7011C33.9696 34.6136 34.1616 34.4853 34.3233 34.3235C34.485 34.1618 34.6133 33.9698 34.7008 33.7585C34.7884 33.5472 34.8334 33.3207 34.8334 33.092V4.90866C34.8334 4.67994 34.7884 4.45346 34.7008 4.24215C34.6133 4.03084 34.485 3.83884 34.3233 3.67711C34.1616 3.51539 33.9696 3.3871 33.7583 3.29957C33.5469 3.21204 33.3205 3.16699 33.0918 3.16699Z" fill="#F4C566"/>
</svg>
